# xmcd
#
# Track frame offsets:
#	150
#	8803
#	53795
#	91860
#	135863
#	173488
#
# Disc length: 2566 seconds
#
# Revision: 1
# Processed by: cddbd v1.5.2PL0 Copyright (c) Steve Scherf et al.
# Submitted via: audiograbber 1.83.01
#
DISCID=370a0406
DTITLE=Grateful Dead - 78-05-11A Springfield Civic Centre Arena, Springfield MA
DYEAR=1900
DGENRE=
TTITLE0=Space
TTITLE1=Not Fade Away
TTITLE2=Stella Blue
TTITLE3=Around and Around
TTITLE4=Werewolves Of London
TTITLE5=Johnny B Goode
EXTD=
EXTT0=
EXTT1=
EXTT2=
EXTT3=
EXTT4=
EXTT5=
PLAYORDER=
